HIERARCHY
ROOT Hips
{
  OFFSET 0 0 0
  CHANNELS 6 Xposition Yposition Zposition Zrotation Yrotation Xrotation
  JOINT LeftThigh
  {
    OFFSET 8.409438 0 -5.917753
    CHANNELS 3 Zrotation Yrotation Xrotation
    JOINT LeftLeg
    {
      OFFSET 0 0 -42.358652
      CHANNELS 3 Zrotation Yrotation Xrotation
      JOINT LeftFoot
      {
        OFFSET 0 0 -39.357303
        CHANNELS 3 Zrotation Yrotation Xrotation
      }
    }
  }
  JOINT RightThigh
  {
    OFFSET -8.409438 0 -5.917753
    CHANNELS 3 Zrotation Yrotation Xrotation
    JOINT RightLeg
    {
      OFFSET 0 0 -42.358652
      CHANNELS 3 Zrotation Yrotation Xrotation
      JOINT RightFoot
      {
        OFFSET 0 0 -39.357303
        CHANNELS 3 Zrotation Yrotation Xrotation
      }
    }
  }
  JOINT SpineLow
  {
    OFFSET 0 0 4.719101
    CHANNELS 3 Zrotation Yrotation Xrotation
    JOINT SpineMid
    {
      OFFSET 0 0 12.899191
      CHANNELS 3 Zrotation Yrotation Xrotation
      JOINT Chest
      {
        OFFSET 0 0 12.899191
        CHANNELS 3 Zrotation Yrotation Xrotation
        JOINT LeftShoulder
        {
          OFFSET 7.550562 1.41573 9.438202
          CHANNELS 3 Zrotation Yrotation Xrotation
          JOINT LeftArm
          {
            OFFSET 9.155056 0 4.247191
            CHANNELS 3 Zrotation Yrotation Xrotation
            JOINT LeftForearm
            {
              OFFSET 0 0 25.771955
              CHANNELS 3 Zrotation Yrotation Xrotation
              JOINT LeftHand
              {
                OFFSET 0 0 25.197169
                CHANNELS 3 Zrotation Yrotation Xrotation
              }
            }
          }
        }
        JOINT RightShoulder
        {
          OFFSET -7.550562 1.41573 9.438202
          CHANNELS 3 Zrotation Yrotation Xrotation
          JOINT RightArm
          {
            OFFSET -9.155056 0 4.247191
            CHANNELS 3 Zrotation Yrotation Xrotation
            JOINT RightForearm
            {
              OFFSET 0 0 -25.771955
              CHANNELS 3 Zrotation Yrotation Xrotation
              JOINT RightHand
              {
                OFFSET 0 0 -25.197169
                CHANNELS 3 Zrotation Yrotation Xrotation
              }
            }
          }
        }
        JOINT Neck
        {
          OFFSET 0 0 15.101124
          CHANNELS 3 Zrotation Yrotation Xrotation
          JOINT Head
          {
            OFFSET 0 0 11.325843
            CHANNELS 3 Zrotation Yrotation Xrotation
            End Site
            {
              OFFSET 0 0 14.157303
            }
          }
        }
      }
    }
  }
}
MOTION
Frames: 16
Frame Time: 0.01
0.0  101.685394  0.0  -4.733448  -18.370437  -101.963019  33.149707  -25.093985  7.587027  2.040188  1.388939  22.419162  6.279028  2.80506  4.017396  -4.175903  8.829657  1.36206  5.512482  0.429885  10.726949  13.423998  1.510923  0.498828  -1.141286  -1.097889  1.535532  -3.189798  -2.926323  4.250547  -3.189799  -2.926323  4.250547  -2.147623  3.006012  18.949027  -33.955912  65.553236  26.93262  -19.330163  -22.595481  50.838763  95.711716  -3.162957  -48.630645  12.952461  -21.005602  22.790195  74.938497  31.470791  35.034409  -15.621703  36.890737  -106.768812  79.006172  17.011909  52.713437  13.198916  -2.979057  2.58614  9.90977  -2.179693  2.004682  
0.0  101.685394  0.0  -5.862498  -16.560605  -102.040924  32.301012  -26.765675  6.512105  1.65916  2.201569  23.101461  5.713272  2.681119  3.76098  -4.914042  7.782152  2.686533  1.749548  0.915811  9.514511  12.96209  1.380627  0.466031  -1.930816  -1.621597  1.485761  -5.382174  -4.308558  4.19326  -5.382174  -4.308558  4.19326  -0.167131  3.567646  17.813446  -27.902107  60.095832  30.764544  -2.320769  -25.358033  43.326564  96.038441  9.711837  -65.712274  14.429244  -18.538355  26.667407  67.945276  31.196715  35.278175  -15.13164  28.257436  -105.848072  78.899833  24.467456  52.325144  13.861415  -1.654946  3.116547  10.404094  -1.171258  2.376252  
0.0  101.685394  0.0  -6.824153  -14.27878  -102.154759  32.272762  -28.293852  5.605057  -0.204391  3.044856  23.177867  5.612968  2.761661  3.747879  -6.561814  6.994168  3.711093  0.246251  1.080807  8.894702  13.141651  1.445365  0.488805  -2.699312  -1.928164  1.191845  -7.485322  -5.128192  3.474964  -7.485323  -5.128192  3.474964  1.257321  3.554491  17.391966  -21.122281  55.31469  34.318264  10.339199  -25.090142  41.720238  95.338812  21.679956  -73.46628  15.327723  -16.741098  31.06031  60.939514  30.034599  34.561388  -14.601473  21.824546  -104.645522  78.928294  30.47921  52.249301  14.443884  -1.109816  4.136716  10.840671  -0.735092  3.130754  
0.0  101.685394  0.0  -7.321656  -12.087505  -102.011781  32.386396  -29.22025  4.433674  -2.269605  3.913178  23.416648  5.607815  2.941066  3.711076  -8.640799  6.614579  3.983716  -0.585026  1.329918  8.602333  13.593026  1.633984  0.462733  -3.207138  -2.02527  0.941291  -8.862091  -5.398692  2.842322  -8.862092  -5.398692  2.842322  1.411305  2.598226  16.620457  -13.395728  50.065253  37.688159  13.350101  -22.451154  46.417331  95.093968  26.879452  -75.696222  14.241605  -14.362495  33.266354  56.476199  27.32816  33.647239  -15.094805  20.348113  -103.930506  77.76296  33.311564  52.545399  14.530562  -1.001673  4.444364  10.905609  -0.646025  3.359265  
0.0  101.685394  0.0  -7.416882  -10.188044  -101.917475  32.384272  -29.654336  3.446606  -4.10501  4.711414  23.80284  5.830806  3.108999  3.759228  -10.582528  6.613571  3.977176  -0.678199  1.607195  8.582964  13.721808  1.759326  0.330026  -3.386485  -2.084347  1.089256  -9.368787  -5.530421  3.26977  -9.368787  -5.530421  3.26977  -0.086754  1.10754  14.882371  -10.137995  44.408698  35.596722  11.532421  -15.044854  54.047673  99.301909  29.398137  -76.36742  12.130728  -11.664734  32.503198  53.662172  24.375982  33.017127  -16.986341  22.925943  -103.293343  76.20302  34.554439  52.466215  13.954321  -0.489901  3.122649  10.468504  -0.296297  2.354618  
0.0  101.685394  0.0  -7.245452  -8.523339  -101.641925  32.096697  -29.467056  2.519685  -5.318908  5.288554  24.310907  5.869458  3.166456  3.791858  -12.286713  6.848014  3.485163  -0.201029  1.874178  8.898009  13.474125  1.814996  0.157284  -3.444744  -2.113103  1.379742  -9.554057  -5.563516  4.072665  -9.554056  -5.563516  4.072664  -1.702205  -0.558748  13.07255  -6.971321  40.202997  33.063728  10.422823  -11.398821  59.274742  106.457198  34.593397  -74.437399  9.402013  -9.514553  30.783017  52.365245  21.638657  32.750867  -19.110795  26.901187  -102.82208  74.747032  34.883196  52.177037  13.303028  0.239326  1.226704  9.976824  0.20632  0.915331  
0.0  101.685394  0.0  -7.051014  -7.269118  -101.115296  31.837556  -28.868002  1.533831  -5.87104  5.44099  24.884915  5.8041  3.198804  3.848184  -13.43255  6.981109  2.587442  0.418837  2.07925  9.388564  13.058723  1.839743  0.0714  -3.56762  -2.242461  1.611836  -9.920758  -5.872924  4.737378  -9.920758  -5.872923  4.737379  -2.215665  -2.167264  12.09784  -3.354234  37.354487  31.695579  11.105363  -12.615325  61.8253  110.702556  39.879285  -71.14702  7.622849  -7.61246  29.493688  51.876551  19.14771  32.727744  -20.487049  29.424147  -102.761986  72.906944  35.79105  51.586639  13.238102  1.380688  -0.197317  9.928542  1.031815  -0.178  
0.0  101.685394  0.0  -6.866264  -6.371452  -100.591585  31.515376  -28.096524  0.732652  -5.916842  5.202313  25.417745  5.6523  3.294771  3.945615  -14.207282  7.201178  1.672942  1.122218  2.090594  9.820741  12.527305  1.805998  0.092964  -3.871656  -2.296462  1.750723  -10.770263  -5.974207  5.152189  -10.770264  -5.974206  5.152189  -0.004525  -3.903109  12.451353  -1.604005  34.617797  29.436884  12.165152  -14.424769  63.126832  109.308048  41.942457  -69.449396  7.621003  -6.734083  29.529146  51.988159  16.670132  32.348613  -21.463801  29.521248  -102.933421  71.270802  37.677643  50.331509  14.140519  2.215329  -0.923573  10.607441  1.641171  -0.744362  
0.0  101.685394  0.0  -6.625921  -6.170851  -100.155868  31.50537  -27.334261  0.230824  -5.610089  4.749704  25.762165  5.405919  3.357464  3.974373  -14.430759  7.509728  0.933882  1.814152  1.903077  10.077456  12.106939  1.827926  0.180123  -4.197589  -2.429524  1.780907  -11.678817  -6.304147  5.287858  -11.678816  -6.304147  5.287858  3.777666  -4.151256  11.678594  -0.803533  33.325979  29.027993  11.26386  -14.320726  63.486619  106.986485  41.315106  -69.739859  9.161287  -5.53007  30.710426  52.074979  13.859885  31.085473  -21.971951  28.544639  -102.03012  70.894269  39.585063  49.048908  15.563705  3.242525  -0.883977  11.674376  2.411242  -0.746065  
0.0  101.685394  0.0  -6.018769  -7.376525  -99.927619  32.487788  -26.556579  0.278583  -5.001728  4.230494  25.812529  5.35569  3.455659  4.161219  -13.040662  7.967195  0.481638  2.103469  1.739468  10.171866  12.115843  1.874061  0.304477  -4.327265  -2.576168  1.806693  -12.051804  -6.687376  5.398619  -12.051805  -6.687376  5.39862  7.542147  -3.631567  11.747059  -3.27335  34.584676  27.070519  10.325118  -12.895119  62.834049  106.021221  38.747142  -70.617829  10.714962  -3.471219  31.763884  53.073051  10.401357  29.426431  -22.387455  28.088593  -100.13816  71.12078  41.07912  48.248047  17.155817  4.394092  -0.44109  12.863719  3.286259  -0.454701  
0.0  101.685394  0.0  -5.583159  -8.467483  -99.72945  33.012576  -25.959316  0.632106  -4.354375  3.85634  25.47977  5.421723  3.426819  4.281548  -11.787789  8.26955  0.145934  2.124746  1.661195  10.230969  12.044221  1.940359  0.339889  -4.258021  -2.70153  1.809612  -11.87585  -7.033888  5.423938  -11.87585  -7.033888  5.423938  9.764141  -2.990847  12.192118  -7.639452  36.271114  24.36541  9.759311  -11.249936  61.127213  105.993537  36.106814  -71.282786  11.227601  -1.589908  31.89668  54.154415  6.631516  27.679188  -24.690507  28.726465  -97.347303  69.066818  42.890177  45.242262  18.00575  5.191315  0.178853  13.493522  3.902764  -0.019371  
0.0  101.685394  0.0  -4.568119  -10.027458  -98.465806  34.14356  -24.337179  0.468985  -3.440686  3.559794  25.062509  5.731826  3.339971  4.393782  -10.031801  8.771714  -1.439297  1.995409  1.644927  10.349012  11.991101  2.014924  0.32948  -3.770509  -2.671871  1.588697  -10.514092  -7.030815  4.76428  -10.514092  -7.030815  4.76428  9.935025  -2.502136  12.413619  -12.236937  36.912107  21.859613  9.807354  -10.24198  59.18238  105.232578  33.867334  -71.925041  9.844596  -0.550139  31.395274  54.6193  3.72076  26.161655  -26.039079  30.661947  -95.732706  66.984709  43.43074  44.069613  17.787428  5.291876  0.837007  13.323829  3.997272  0.473296  
0.0  101.685394  0.0  -3.890139  -12.625783  -98.920048  35.548008  -24.074707  1.6775  -2.768952  3.395068  24.414612  6.315949  3.276724  4.564609  -6.508293  9.042337  -1.097876  1.159731  1.718568  10.418236  12.010951  2.125774  0.327158  -3.138604  -2.555356  1.586392  -8.771285  -6.761305  4.675194  -8.771285  -6.761306  4.675194  9.463253  -2.313264  13.101287  -16.095395  37.177956  19.933836  10.107389  -9.96104  57.330966  103.902736  31.761057  -72.922106  8.099726  -0.916815  31.200351  53.732303  2.662885  25.693173  -26.140685  31.435723  -95.530157  66.057518  43.559109  43.652413  17.222599  4.844677  1.647023  12.896275  3.683398  1.098686  
0.0  101.685394  0.0  -3.606237  -12.973217  -99.769674  34.613755  -24.125979  3.253757  -2.811701  3.244989  23.245549  7.362366  3.375214  5.106695  -4.925586  9.219392  -0.224828  0.285344  1.837099  10.524237  11.843404  2.238185  0.286878  -3.066023  -2.46762  1.653077  -8.571041  -6.518746  4.838066  -8.57104  -6.518745  4.838066  9.984809  -2.040695  13.671182  -19.099347  37.349928  18.354517  9.959338  -9.746154  56.221038  103.239491  30.187934  -73.736107  7.556776  -1.122207  31.596591  52.972479  3.306141  25.285239  -25.453003  30.753997  -95.742866  66.135733  43.997743  43.455711  17.234384  4.433286  2.325413  12.902669  3.393778  1.619419  
0.0  101.685394  0.0  -3.702507  -12.187662  -100.459433  32.494223  -24.164378  4.509471  -1.949467  3.040007  22.862376  7.781009  3.320766  5.235085  -4.762331  9.168228  0.597372  -0.382882  1.997792  10.545543  11.753867  2.324133  0.260131  -3.29371  -2.44134  1.663426  -9.193364  -6.428184  4.884347  -9.193364  -6.428184  4.884347  10.956785  -1.688953  14.441398  -21.10482  37.425248  17.173985  9.563944  -10.065227  55.864107  102.862752  28.935668  -74.171856  8.080138  -1.29524  31.934892  52.762509  4.284186  25.366187  -24.681552  29.341944  -96.087878  66.946889  44.200239  43.530493  17.595591  4.129913  3.075307  13.170579  3.18919  2.188492  
0.0  101.685394  0.0  -3.864568  -11.288305  -100.48965  30.711437  -23.919057  4.931863  -0.943155  2.825008  22.702056  8.084191  3.25002  5.416714  -4.732092  9.089033  0.890043  -1.123473  2.184227  10.437078  11.654779  2.336968  0.229336  -3.482724  -2.44943  1.61999  -9.707792  -6.442002  4.784754  -9.707792  -6.442003  4.784754  11.377172  -1.376188  14.682715  -21.980602  37.473336  16.699243  9.152073  -10.775404  55.901369  102.584745  28.180542  -74.246417  8.620037  -1.634648  31.609937  52.823519  5.376899  26.053594  -46.145352  15.971969  -111.210281  61.368847  28.433287  21.374557  17.741996  3.959347  3.549707  13.278728  3.075745  2.548613  
